HIERARCHY
ROOT joint_Root
{
	OFFSET 0.0 0.0 0.0
	CHANNELS 6 Xposition Yposition Zposition Zrotation Xrotation Yrotation 
	JOINT Hips
	{
		OFFSET -17.1583 93.1646 452.98
		CHANNELS 6 Xposition Yposition Zposition Zrotation Xrotation Yrotation 
		JOINT Spine
		{
			OFFSET 15.7357 0.0 0.0
			CHANNELS 6 Xposition Yposition Zposition Zrotation Xrotation Yrotation 
			JOINT Chest
			{
				OFFSET 8.98455 -0.406207 0.0
				CHANNELS 6 Xposition Yposition Zposition Zrotation Xrotation Yrotation 
				JOINT Neck
				{
					OFFSET 16.3773 0.0 0.0
					CHANNELS 6 Xposition Yposition Zposition Zrotation Xrotation Yrotation 
					JOINT Head
					{
						OFFSET 6.45672 0.0 0.0
						CHANNELS 6 Xposition Yposition Zposition Zrotation Xrotation Yrotation 
						End Site
						{
							OFFSET 0.0 0.0 0.0
						}
					}
				}
				JOINT Shoulder_L
				{
					OFFSET 12.9942 -0.242716 4.98039
					CHANNELS 6 Xposition Yposition Zposition Zrotation Xrotation Yrotation 
					JOINT UpperArm_L
					{
						OFFSET 5.34809 0.0 0.0
						CHANNELS 6 Xposition Yposition Zposition Zrotation Xrotation Yrotation 
						JOINT LowerArm_L
						{
							OFFSET 24.3286 1.87007e-05 0.0
							CHANNELS 6 Xposition Yposition Zposition Zrotation Xrotation Yrotation 
							JOINT Hand_L
							{
								OFFSET 22.2916 0.0 0.0
								CHANNELS 6 Xposition Yposition Zposition Zrotation Xrotation Yrotation 
								End Site
								{
									OFFSET 0.0 0.0 0.0
								}
							}
						}
					}
				}
				JOINT Shoulder_R
				{
					OFFSET 12.9945 -0.242716 -4.98039
					CHANNELS 6 Xposition Yposition Zposition Zrotation Xrotation Yrotation 
					JOINT UpperArm_R
					{
						OFFSET -5.34813 0.0 0.0
						CHANNELS 6 Xposition Yposition Zposition Zrotation Xrotation Yrotation 
						JOINT LowerArm_R
						{
							OFFSET -24.3289 0.000322201 0.0
							CHANNELS 6 Xposition Yposition Zposition Zrotation Xrotation Yrotation 
							JOINT Hand_R
							{
								OFFSET -22.2915 -0.000108084 0.0
								CHANNELS 6 Xposition Yposition Zposition Zrotation Xrotation Yrotation 
								End Site
								{
									OFFSET 0.0 0.0 0.0
								}
							}
						}
					}
				}
			}
		}
		JOINT UpperLeg_L
		{
			OFFSET -2.19248 -6.46944 0.0
			CHANNELS 6 Xposition Yposition Zposition Zrotation Xrotation Yrotation 
			JOINT LowerLeg_L
			{
				OFFSET 39.0811 0.0 -1.23785e-05
				CHANNELS 6 Xposition Yposition Zposition Zrotation Xrotation Yrotation 
				JOINT Foot_L
				{
					OFFSET 40.9854 0.0 -1.26872e-05
					CHANNELS 6 Xposition Yposition Zposition Zrotation Xrotation Yrotation 
					JOINT Toes_L
					{
						OFFSET 11.7543 0.0 0.0
						CHANNELS 6 Xposition Yposition Zposition Zrotation Xrotation Yrotation 
						End Site
						{
							OFFSET 0.0 0.0 0.0
						}
					}
				}
			}
		}
		JOINT UpperLeg_R
		{
			OFFSET -2.19251 6.46944 0.0
			CHANNELS 6 Xposition Yposition Zposition Zrotation Xrotation Yrotation 
			JOINT LowerLeg_R
			{
				OFFSET -39.0811 -0.00228153 -0.0401928
				CHANNELS 6 Xposition Yposition Zposition Zrotation Xrotation Yrotation 
				JOINT Foot_R
				{
					OFFSET -40.9854 0.0 0.0
					CHANNELS 6 Xposition Yposition Zposition Zrotation Xrotation Yrotation 
					JOINT Toes_R
					{
						OFFSET -11.7543 0.0 0.0
						CHANNELS 6 Xposition Yposition Zposition Zrotation Xrotation Yrotation 
						End Site
						{
							OFFSET 0.0 0.0 0.0
						}
					}
				}
			}
		}
	}
}
MOTION
Frames:	6
Frame Time:	0.0333333
0.000000 0.000000 0.000000 0.000000 0.000000 -0.000000 1.102240 95.728000 -12.955400 86.434700 -4.398540 -14.645900 15.735700 0.000005 -0.000001 130.263000 84.981100 -129.467000 8.984550 -0.406207 -0.000000 -0.147109 6.430800 1.600390 16.377300 -0.000001 -0.000001 -6.334100 1.422770 1.748200 6.456720 -0.000001 -0.000000 -0.939619 -0.224390 -0.880237 12.994200 -0.242716 4.980390 -90.973500 2.820510 -70.949300 5.348090 -0.000007 -0.000001 -39.714600 -19.307900 28.951100 24.328600 0.000019 0.000005 0.000001 24.264800 -0.000002 22.291600 -0.000001 0.000005 20.590100 3.712230 28.178800 12.994500 -0.242716 -4.980390 89.768000 0.951639 -76.297900 -5.348130 -0.000001 -0.000004 -63.631900 13.237700 -5.362600 -24.328900 0.000322 -0.000009 -2.683500 -0.564505 -78.126000 -22.291500 -0.000108 -0.000004 19.010300 5.677050 -18.548400 -2.192480 -6.469440 -0.000000 -171.461000 6.571010 -34.306300 39.081100 -0.000007 -0.000012 0.002034 -0.012827 9.014680 40.985400 -0.000006 -0.000013 -5.499510 4.512910 -72.132400 11.754300 -0.000000 0.000003 0.002252 0.058037 -14.222700 -2.192510 6.469440 -0.000001 -178.888000 5.904400 -176.242000 -39.081100 -0.002282 -0.040193 0.173252 -0.241599 35.125900 -40.985400 0.000008 0.000006 -1.513350 -10.114300 -26.920700 -11.754300 -0.000006 -0.000006 0.000576 0.157333 -10.192400
0.000000 0.000000 0.000000 0.000000 0.000000 -0.000000 1.072540 93.711300 -2.766510 86.379400 -4.210100 -13.088000 15.735700 0.000005 -0.000001 122.381000 85.048300 -121.712000 8.984550 -0.406207 -0.000000 0.571547 5.259980 1.310220 16.377300 -0.000001 -0.000001 -5.863610 1.869520 1.670830 6.456720 -0.000001 -0.000000 -0.371063 0.651427 0.247063 12.994200 -0.242716 4.980390 -91.003100 2.900800 -70.914700 5.348090 -0.000007 -0.000001 -40.862700 -20.996300 24.872100 24.328600 0.000019 0.000005 0.000123 24.700000 -0.000002 22.291600 -0.000001 0.000005 29.505900 3.610640 29.509100 12.994500 -0.242716 -4.980390 89.767100 0.931891 -75.968700 -5.348130 -0.000001 -0.000004 -65.626800 13.210800 -3.182450 -24.328900 0.000322 -0.000009 -4.123180 -1.412600 -71.132700 -22.291500 -0.000108 -0.000004 15.168100 5.660430 -16.010400 -2.192480 -6.469440 -0.000000 -172.595000 5.303150 -32.448700 39.081100 -0.000007 -0.000012 -0.004349 0.022382 10.995200 40.985400 -0.000006 -0.000013 -5.793030 4.161840 -75.831600 11.754300 -0.000000 0.000003 0.002330 0.062700 -14.033700 -2.192510 6.469440 -0.000001 -178.422000 4.444560 -177.788000 -39.081100 -0.002282 -0.040193 0.277316 -0.251638 47.442500 -40.985400 0.000008 0.000006 0.822811 -10.335900 -22.466400 -11.754300 -0.000006 -0.000006 0.000412 0.160425 -10.066900
0.000000 0.000000 0.000000 0.000000 0.000000 -0.000000 1.288530 90.841500 6.550960 88.121200 -2.825030 -14.273000 15.735700 0.000005 -0.000001 112.242000 86.162700 -112.118000 8.984550 -0.406207 -0.000000 -0.665294 2.895280 0.266023 16.377300 -0.000001 -0.000001 -5.382190 2.174260 1.449420 6.456720 -0.000001 -0.000000 -0.299924 1.669420 0.306576 12.994200 -0.242716 4.980390 -91.296800 3.810550 -71.189000 5.348090 -0.000007 -0.000001 -42.954300 -20.614300 18.890700 24.328600 0.000019 0.000005 0.123235 24.169700 -0.300981 22.291600 -0.000001 0.000005 30.303400 3.655130 28.923800 12.994500 -0.242716 -4.980390 89.565100 1.629230 -75.059000 -5.348130 -0.000001 -0.000004 -66.581300 12.792500 0.263950 -24.328900 0.000322 -0.000009 -6.191010 -3.286640 -62.153200 -22.291500 -0.000108 -0.000004 11.493800 5.648150 -14.818500 -2.192480 -6.469440 -0.000000 -178.288000 1.893340 -39.712100 39.081100 -0.000007 -0.000012 0.225623 -0.439155 27.192900 40.985400 -0.000006 -0.000013 -0.061161 7.521370 -72.755400 11.754300 -0.000000 0.000003 0.000125 0.002129 -16.491000 -2.192510 6.469440 -0.000001 -179.965000 6.049810 174.327000 -39.081100 -0.002282 -0.040193 0.467499 -0.236961 62.963400 -40.985400 0.000008 0.000006 0.550619 -9.999780 -22.534200 -11.754300 -0.000006 -0.000006 0.000538 0.158062 -10.162800
0.000000 0.000000 0.000000 0.000000 0.000000 -0.000000 1.679900 87.699600 15.489000 90.504700 -1.838580 -14.736100 15.735700 0.000005 -0.000001 91.697500 86.733200 -92.273700 8.984550 -0.406207 -0.000000 -1.233910 0.238748 -1.149440 16.377300 -0.000001 -0.000001 -5.403280 2.511060 1.171030 6.456720 -0.000001 -0.000000 -0.955897 3.017580 -0.131682 12.994200 -0.242716 4.980390 -92.079400 6.207330 -71.437700 5.348090 -0.000007 -0.000001 -43.963000 -19.452000 11.776000 24.328600 0.000019 0.000005 0.329576 19.777300 -0.976108 22.291600 -0.000001 0.000005 22.746200 4.009650 24.001900 12.994500 -0.242716 -4.980390 88.957300 3.761010 -74.491400 -5.348130 -0.000001 -0.000004 -65.545800 10.156500 3.741500 -24.328900 0.000322 -0.000009 -4.213360 -3.510430 -50.202300 -22.291500 -0.000108 -0.000004 7.229410 5.627470 -13.028000 -2.192480 -6.469440 -0.000000 177.710000 2.145380 -44.918900 39.081100 -0.000007 -0.000012 0.597258 -0.629543 43.494000 40.985400 -0.000006 -0.000013 4.861230 8.810920 -69.603700 11.754300 -0.000000 0.000003 0.001881 0.125220 -11.498900 -2.192510 6.469440 -0.000001 177.767000 7.288190 164.419000 -39.081100 -0.002282 -0.040193 0.653354 -0.121739 79.399700 -40.985400 0.000008 0.000006 -1.075030 -12.537200 -26.230800 -11.754300 -0.000006 -0.000006 0.000576 0.157335 -10.192400
0.000000 0.000000 0.000000 0.000000 0.000000 -0.000000 1.891350 85.134100 24.370500 91.851800 -0.363673 -12.454400 15.735700 0.000005 -0.000001 76.736400 85.331700 -77.614300 8.984550 -0.406207 -0.000000 1.307150 -2.091640 -1.730570 16.377300 -0.000001 -0.000001 -7.153820 2.429010 0.747904 6.456720 -0.000001 -0.000000 -2.273720 3.883110 0.112343 12.994200 -0.242716 4.980390 -92.543900 8.020440 -72.336800 5.348090 -0.000007 -0.000001 -47.791200 -18.580100 2.505620 24.328600 0.000019 0.000005 1.485800 15.731000 -5.467460 22.291600 -0.000001 0.000005 8.920640 4.413890 17.824700 12.994500 -0.242716 -4.980390 88.438500 5.385680 -73.806500 -5.348130 -0.000001 -0.000004 -64.430500 5.482930 4.977580 -24.328900 0.000322 -0.000009 -1.265620 -1.842620 -34.389700 -22.291500 -0.000108 -0.000004 5.096430 5.504680 -6.779240 -2.192480 -6.469440 -0.000000 175.869000 3.614890 -41.520400 39.081100 -0.000007 -0.000012 0.895929 -0.650654 54.014200 40.985400 -0.000006 -0.000013 7.162080 7.792510 -80.057300 11.754300 -0.000000 0.000003 -0.000405 0.174180 -9.511790 -2.192510 6.469440 -0.000001 177.212000 7.859040 155.788000 -39.081100 -0.002282 -0.040193 0.594281 0.025861 92.513900 -40.985400 0.000008 0.000006 -0.101714 -12.997200 -28.990100 -11.754300 -0.000006 -0.000006 0.000945 0.149878 -10.495000
0.000000 0.000000 0.000000 0.000000 0.000000 -0.000000 2.122140 84.282300 33.395800 92.502900 -0.392148 -10.716800 15.735700 0.000005 -0.000001 71.945400 84.232300 -72.972600 8.984550 -0.406207 -0.000000 3.175850 -3.530070 -1.954810 16.377300 -0.000001 -0.000001 -7.996480 2.408930 0.565185 6.456720 -0.000001 -0.000000 -2.402790 4.857220 -0.195031 12.994200 -0.242716 4.980390 -92.193400 7.697570 -74.042800 5.348090 -0.000007 -0.000001 -54.105600 -15.839400 -3.635610 24.328600 0.000019 0.000005 5.077760 15.015500 -18.909100 22.291600 -0.000001 0.000005 -3.624490 4.796560 11.284100 12.994500 -0.242716 -4.980390 88.256200 5.699850 -72.957300 -5.348130 -0.000001 -0.000004 -63.999600 2.262840 5.091180 -24.328900 0.000322 -0.000009 0.211289 0.748385 -16.595000 -22.291500 -0.000108 -0.000004 7.211270 5.254110 1.268000 -2.192480 -6.469440 -0.000000 174.576000 4.110430 -33.127500 39.081100 -0.000007 -0.000012 1.075160 -0.743777 55.328900 40.985400 -0.000006 -0.000013 8.063770 6.602100 -87.649500 11.754300 -0.000000 0.000003 0.000146 0.165127 -9.879460 -2.192510 6.469440 -0.000001 177.525000 6.170730 146.742000 -39.081100 -0.002282 -0.040193 0.280959 0.045867 99.398700 -40.985400 0.000008 0.000006 2.510660 -9.989420 -32.627700 -11.754300 -0.000006 -0.000006 0.000632 0.156251 -10.236300
